<svg width="500" height="500" viewBox="0 0 500 500" fill="none" xmlns="http://www.w3.org/2000/svg">
<path d="M21.2163 337.736C21.8233 337.427 22.4203 337.187 23.1043 337.106C23.8783 337.015 24.6992 337.149 25.4652 337.277C26.9282 337.523 28.3343 338.013 29.6933 338.598C32.5553 339.83 35.2152 341.424 37.8352 343.096C43.1472 346.487 48.3733 350.013 53.5063 353.669C63.8133 361.011 73.7522 368.873 83.2652 377.219C85.9322 379.558 88.5592 381.94 91.1582 384.355C92.4022 385.51 93.9623 386.785 95.6383 387.215C95.6773 387.203 95.7162 387.193 95.7542 387.181C97.0892 386.769 98.4212 386.346 99.7492 385.911C102.405 385.043 105.047 384.131 107.674 383.176C112.92 381.269 118.107 379.2 123.217 376.952C124.245 376.5 125.288 376.088 126.327 375.667C126.352 375.308 126.381 374.958 126.368 374.667C126.325 373.678 126.032 372.78 125.847 371.818C125.69 371 125.674 370.27 126.108 369.531C126.546 368.784 127.353 368.442 128.196 368.558C129.218 368.699 130.245 369.146 131.217 369.483C132.29 369.855 133.334 370.305 134.403 370.687C134.844 370.844 135.219 370.954 135.681 370.845C136.227 370.715 136.763 370.514 137.298 370.346C138.391 370.003 139.488 369.679 140.589 369.361C141.609 369.067 142.636 368.803 143.66 368.527C147.668 366.992 151.74 365.604 155.763 364.142C168.716 359.432 181.669 354.723 194.621 350.013C198.065 348.761 201.525 347.547 204.952 346.248C207.554 345.262 209.896 343.932 212.201 342.432C212.251 342.377 212.308 342.333 212.355 342.275C213.12 341.346 213.662 340.197 214.297 339.177C214.884 338.235 215.497 337.225 216.286 336.434C216.527 336.193 216.839 335.93 217.18 335.716C217.131 335.649 217.07 335.59 217.028 335.519C216.725 335.011 216.775 334.419 216.733 333.849C216.69 333.257 216.731 332.654 216.735 332.06C216.743 330.943 216.588 329.68 217.044 328.632C217.221 328.224 217.578 327.7 218.016 327.343C217.784 326.977 217.612 326.573 217.481 326.134C217.223 325.269 217.182 324.366 217.176 323.469C217.168 322.29 217.167 321.112 217.163 319.933L217.14 312.862C217.131 310.229 217.119 307.592 217.028 304.961C216.996 304.052 216.918 303.142 216.67 302.263C216.56 301.873 216.4 301.513 216.185 301.169C215.99 300.857 215.869 300.612 215.797 300.315C215.57 299.984 215.58 299.481 215.985 299.275C216.943 298.787 217.81 299.056 218.818 299.268C219.868 299.489 220.916 299.724 221.957 299.983C223.953 300.48 225.929 301.064 227.851 301.798C231.549 303.21 234.908 305.185 237.936 307.735C240.85 310.189 243.393 313.049 245.807 315.986C248.345 319.073 250.971 322.171 252.988 325.632C254.035 327.428 255.023 329.301 256.616 330.684C257.616 331.552 258.913 332.158 260.243 332.546C261.815 332.735 263.389 332.899 264.967 333.025C269.721 333.406 274.488 333.595 279.241 333.995C280.108 334.068 280.974 334.141 281.841 334.215C286.131 334.326 290.419 334.497 294.701 334.794C305.486 335.541 316.24 336.912 326.834 339.083C336.635 341.092 346.295 343.798 355.665 347.31C364.669 350.684 373.414 354.775 381.697 359.664C385.823 362.099 389.834 364.731 393.699 367.562C395.675 369.009 397.615 370.507 399.513 372.054C401.303 373.513 403.261 374.964 404.708 376.781C404.722 376.798 404.733 376.817 404.747 376.834C405.597 377.312 406.045 378.507 406.176 379.502C406.205 379.597 406.243 379.686 406.269 379.783C406.345 380.067 406.303 380.301 406.202 380.49C406.108 381.849 405.523 383.168 404.841 384.322C403.513 386.57 401.688 388.46 399.593 390.003C395.294 393.168 389.453 395.02 384.107 394.768C383.189 394.725 382.283 394.592 381.384 394.418C381.103 396.426 380.124 398.132 378.455 399.333C377.551 399.983 376.524 400.43 375.506 400.869C374.318 401.381 373.127 401.883 371.931 402.375C369.555 403.352 367.161 404.289 364.751 405.179C362.348 406.066 359.919 406.897 357.429 407.505C354.95 408.11 352.422 408.44 349.883 408.666C344.627 409.134 339.354 409.456 334.084 409.716C331.116 409.862 328.146 409.977 325.175 410.048C322.683 410.107 320.16 410.218 317.67 410.024C317.433 410.396 317.201 410.771 316.966 411.144C315.737 413.094 314.404 414.733 312.426 415.964C310.533 417.142 308.458 418.085 306.301 418.661C304.266 419.205 301.84 419.693 299.826 418.859C298.772 418.423 297.972 417.519 297.197 416.714C296.736 416.235 296.305 415.731 295.854 415.244C295.508 414.871 295.096 414.598 294.734 414.259C291.908 414.54 289.08 414.758 286.249 414.988C284.807 415.105 283.364 415.226 281.922 415.34C281.156 415.401 280.39 415.452 279.623 415.498C279.359 415.514 279.101 415.536 278.846 415.551C278.041 416.269 277.223 416.974 276.355 417.607C276.225 417.702 275.914 417.949 275.533 418.22C274.657 419 273.764 419.762 272.862 420.51C270.389 422.561 267.833 424.512 265.225 426.387C260.029 430.122 254.618 433.546 249.182 436.916C243.604 440.374 238.041 444.007 231.704 445.923C225.376 447.836 218.701 448.206 212.13 448.287C210.487 448.307 208.841 448.312 207.217 448.029C205.715 447.766 203.931 447.163 202.931 445.94C202.407 445.299 202.255 444.435 202.736 443.721C203.2 443.032 204.065 442.686 204.766 442.301C206.186 441.521 207.597 440.661 209.086 440.007C209.103 439.084 209.696 438.086 210.404 437.621C211.61 436.829 213.029 436.315 214.357 435.771C217.095 434.65 219.638 433.095 221.989 431.307C223.159 430.417 224.256 429.434 225.41 428.524C226.604 427.582 227.782 426.622 228.966 425.667C231.437 423.673 233.963 421.753 236.511 419.859C238.031 418.73 239.552 417.602 241.081 416.486C241.91 415.881 242.753 415.27 243.619 414.698C243.495 414.689 243.37 414.684 243.246 414.674C241.118 414.496 239.005 414.217 236.896 413.883C232.686 413.216 228.51 412.351 224.358 411.393C215.901 409.442 207.502 407.218 199.098 405.053C196.703 404.436 194.309 403.817 191.916 403.195C190.675 402.872 189.432 402.556 188.193 402.226C187.968 402.166 187.735 402.102 187.504 402.035C187.128 402.358 186.724 402.653 186.295 402.943C184.422 404.211 182.379 405.257 180.324 406.192C178.181 407.168 175.976 408.012 173.722 408.696C172.621 409.03 171.507 409.322 170.385 409.578C169.188 409.85 167.934 410.197 166.708 410.06C166.165 409.999 165.693 409.551 165.868 408.957C166.082 408.231 166.021 407.372 166.062 406.619C166.107 405.805 166.138 404.991 166.141 404.176C166.144 403.407 166.141 402.636 166.121 401.867C166.117 401.703 166.107 401.535 166.098 401.367C164.907 401.854 163.71 402.321 162.494 402.743C159.816 403.673 157.119 404.539 154.398 405.337C151.745 406.115 149.054 406.727 146.391 407.46C143.776 408.179 141.345 409.27 138.9 410.426C137.554 411.062 136.189 411.685 134.806 412.239C133.551 412.742 131.944 413.532 130.57 413.182C130.338 413.123 130.227 412.936 130.212 412.734C130.074 412.534 130.056 412.266 130.254 412.029C130.868 411.295 131.856 410.851 132.564 410.195C133.319 409.496 134.01 408.718 134.654 407.917C135.947 406.308 137.596 405.07 139.433 404.139C141.303 403.192 143.295 402.518 145.251 401.774C145.366 401.73 145.479 401.682 145.594 401.637C145.529 401.637 145.464 401.64 145.399 401.64C142.644 401.655 139.891 401.534 137.138 401.462C135.823 401.427 134.499 401.377 133.184 401.447C131.83 401.52 130.563 401.878 129.263 402.235C128.058 402.566 126.921 402.998 125.674 403.171C124.742 403.301 123.669 403.385 122.827 402.943C122.591 402.91 122.353 402.852 122.114 402.738C121.698 402.54 121.796 401.826 122.245 401.737C123.056 401.576 123.821 401.403 124.529 400.954C125.217 400.518 125.783 399.912 126.441 399.432C127.78 398.454 129.394 398.289 130.948 397.864C132.435 397.457 133.847 396.887 135.22 396.192C133.598 396.189 131.976 396.192 130.354 396.201C126.971 396.22 123.588 396.269 120.205 396.318C113.531 396.414 106.857 396.503 100.186 396.73C98.9092 396.773 97.6333 396.826 96.3573 396.877C96.1593 397.097 95.9613 397.316 95.7713 397.544C95.0893 398.362 94.5312 399.251 93.9732 400.157C92.6942 402.234 91.5453 404.406 90.3803 406.549C87.8413 411.219 85.3043 415.89 82.7533 420.554C78.1953 428.887 73.4873 437.647 66.1093 443.86C63.9763 445.656 61.6533 447.16 59.0443 448.166C57.7973 448.647 56.5042 449.022 55.1922 449.277C54.5562 449.401 53.9133 449.49 53.2733 449.589C52.9073 449.646 52.5202 449.726 52.1502 449.739C51.8952 449.748 51.6543 449.688 51.4143 449.616C51.2133 449.624 51.0112 449.598 50.8372 449.499C50.2962 449.191 50.2293 448.572 50.4583 448.054C51.7603 445.11 52.9683 442.158 53.8643 439.061C54.7443 436.024 55.4023 432.941 55.8703 429.814C56.8903 422.996 57.4563 416.085 58.0053 409.216C58.1583 407.297 58.3143 405.376 58.5003 403.46C58.5933 402.501 58.6783 401.539 58.7873 400.582C58.8643 399.906 58.9183 399.237 59.0863 398.593C58.7503 398.298 58.4333 397.988 58.1613 397.614C57.7783 397.089 57.5623 396.483 57.4923 395.841C57.4733 395.669 57.4763 395.503 57.4853 395.336C57.4823 395.332 57.4773 395.332 57.4743 395.328C55.3773 393.189 54.4143 390.013 53.2323 387.329C51.8863 384.272 50.3733 381.292 48.7863 378.354C47.2263 375.466 45.5973 372.615 43.9773 369.76C42.4153 367.008 40.8653 364.227 39.1173 361.587C38.1433 360.115 37.0943 358.709 36.0133 357.315C35.3573 356.47 34.6122 355.368 34.5352 354.27C34.5062 354.272 34.4773 354.273 34.4483 354.275C33.6623 354.327 28.6333 355.045 29.1003 353.37C29.1023 353.364 29.1062 353.36 29.1082 353.354C29.0312 352.988 29.0603 352.61 29.1133 352.139C29.2063 351.311 29.2662 350.459 29.1472 349.63C28.9282 348.106 28.1903 346.837 27.2583 345.643C26.3153 344.435 25.3243 343.259 24.2553 342.161C23.6793 341.569 23.0572 341.02 22.5172 340.393C22.2802 340.119 22.0203 339.845 21.8133 339.548C21.6023 339.246 21.4733 338.889 21.3073 338.558C20.9413 338.478 20.8913 337.901 21.2163 337.736Z" fill="#272525"/>
<path d="M14.2651 183.558C14.7691 184.696 15.4681 185.712 16.3281 186.658C18.6121 189.169 21.6831 190.835 24.7391 192.22C28.1071 193.747 31.5541 195.104 35.0171 196.398C35.9531 196.748 36.8971 197.076 37.8371 197.414C37.8061 201.87 41.3851 205.381 44.9851 207.53C49.5751 210.27 54.9571 211.57 60.0491 213.035C79.5421 218.644 99.3571 223.053 119.233 227.065C120.452 227.311 121.675 227.545 122.895 227.789C122.843 228.058 122.83 228.345 122.847 228.678C122.888 229.502 122.933 230.326 122.982 231.149C123.076 232.745 123.184 234.339 123.306 235.933C123.547 239.067 123.793 242.201 124.123 245.328C124.554 249.417 124.798 255.088 129.403 256.728C134.188 258.432 139.109 253.889 142.289 250.913C145.914 247.52 149.139 243.657 153.111 240.644C154.985 239.223 157.02 238.06 159.272 237.356C160.484 236.977 161.724 236.777 162.978 236.599C163.693 236.497 164.417 236.407 165.114 236.212C165.266 236.17 165.4 236.125 165.524 236.075C166.098 235.846 168.268 236.629 168.904 236.749C170.363 237.024 171.83 237.26 173.291 237.52C176.214 238.039 179.133 238.581 182.024 239.262C185.299 240.033 188.579 240.776 191.867 241.49C194.895 242.148 197.924 242.805 200.955 243.451C201.432 243.969 202.022 244.446 202.522 244.901C203.852 246.111 205.299 247.211 206.678 248.367C211.582 252.477 216.491 256.572 221.294 260.802C226.14 265.069 230.758 269.552 235.46 273.973C235.857 274.346 236.535 274.445 236.999 274.131C238.772 272.931 237.952 270.644 237.038 269.164C235.862 267.262 234.893 265.224 233.79 263.277C232.684 261.325 231.559 259.381 230.399 257.461C229.822 256.505 229.239 255.562 228.71 254.579C229.732 255.329 230.761 256.07 231.773 256.835C237.86 261.437 243.695 266.446 249.1 271.836C251.258 273.988 253.337 276.215 255.384 278.471C256.441 279.962 257.572 281.4 258.635 282.893C260.204 285.098 261.711 287.348 262.976 289.744C264.036 291.752 264.904 293.858 265.529 296.042C266.145 298.194 266.361 300.327 266.559 302.545C266.61 303.12 266.775 303.686 266.791 304.261C266.806 304.835 266.733 305.409 266.647 305.976C266.44 307.34 266.101 308.674 265.718 309.998C265.068 312.241 264.352 314.461 263.795 316.731C262.772 320.907 261.989 325.156 262.024 329.471C262.059 333.782 262.901 337.872 264.911 341.71C265.341 342.532 266.718 342.49 267.104 341.65C269.722 335.954 271.818 330.016 273.32 323.929C274.057 320.941 274.652 317.918 275.101 314.873C275.11 314.815 275.114 314.757 275.122 314.7C276.048 314.197 276.984 313.712 277.93 313.247C279.922 312.269 281.956 311.391 284.003 310.535C291.452 307.419 299.044 304.49 306.795 302.211C310.716 301.058 314.672 300.104 318.705 299.436C320.504 299.138 322.301 298.829 324.066 298.361C325.018 298.108 325.979 297.823 326.884 297.431C327.295 297.253 327.689 297.041 328.063 296.794C328.292 296.643 328.424 296.508 328.53 296.344C328.856 296.099 329.084 295.759 329.142 295.337C329.223 294.753 328.945 294.254 328.366 294.085C326.487 293.538 324.504 293.254 322.586 292.869C320.707 292.492 318.811 292.187 316.923 291.857C310.154 290.674 303.38 289.516 296.595 288.429C293.176 287.881 289.755 287.344 286.332 286.818C284.594 286.551 282.856 286.287 281.118 286.025C280.501 285.932 279.856 285.784 279.215 285.693C279.239 285.409 279.263 285.126 279.291 284.85C279.421 283.572 279.525 282.293 279.587 281.01C279.832 275.935 279.588 270.842 278.976 265.8C276.996 249.481 271.611 233.541 263.829 219.09C260.08 212.129 255.732 205.49 250.845 199.275C248.361 196.116 245.747 193.057 242.999 190.124C242.936 190.057 242.872 189.986 242.809 189.918C241.898 187.08 240.99 184.24 240.195 181.37C239.114 177.468 238.513 173.545 238.321 169.502C238.121 165.278 238.079 161.039 238 156.811C237.961 154.709 237.93 152.607 237.909 150.504C237.893 148.874 237.969 147.204 237.815 145.57C238.052 145.235 238.12 144.768 238.059 144.28C237.906 143.062 237.055 142.214 235.835 142.041C234.55 141.86 233.237 142.317 232.019 142.675C230.855 143.018 229.704 143.402 228.564 143.819C220.463 146.779 212.996 151.187 204.986 154.361C200.895 155.982 196.657 157.268 192.28 157.808C191.469 157.908 190.655 157.967 189.842 158.035C188.98 157.81 188.114 157.599 187.239 157.416C174.492 154.747 161.605 152.474 148.639 151.191C135.908 149.931 123.138 149.73 110.396 150.953C97.9391 152.149 85.6201 154.503 73.4401 157.336C67.3211 158.759 61.2311 160.305 55.1521 161.891C49.2881 163.421 43.4061 164.908 37.5881 166.604C31.9021 168.261 26.2761 170.218 20.9871 172.907C18.5061 174.169 15.4921 175.426 13.8791 177.806C12.6501 179.618 12.6481 182.097 14.2651 183.558Z" fill="#272525"/>
<path d="M442.123 72.754C442.624 68.233 443.085 63.648 442.449 59.118C441.643 52.834 438.851 45.534 432.285 43.467C428.286 42.212 424.033 42.205 419.891 42.538C415.393 42.806 410.926 43.399 406.462 43.997C385.663 46.774 365.053 51.056 344.935 57.033C335.641 59.692 326.385 62.523 317.354 65.983C303.285 71.18 289.606 77.323 275.983 83.577C262.405 89.808 248.829 96.083 235.643 103.115C226.776 107.692 218.107 112.663 209.956 118.434C207.681 120.049 205.45 121.724 203.25 123.436C200.23 121.969 198.275 119.758 195.763 117.068C191.435 112.498 187.671 107.334 182.782 103.33C176.745 98.433 169.597 94.939 162.074 93.015C159.963 92.508 157.81 92.143 155.647 91.956C152.637 91.624 151.861 93.678 151.852 95.556C152.025 97.977 152.859 100.286 153.654 102.56C154.665 105.231 155.677 107.906 156.851 110.51C158.884 114.496 160.503 117.082 161.529 121.439C162.276 124.844 162.048 129.692 163.144 133.929C163.821 136.875 164.88 139.714 165.621 142.643C166.599 146.803 166.993 149.753 166.732 154.209C166.68 156.006 166.329 157.57 166.245 158.316C166.187 159.055 165.902 159.827 166.08 160.356C164.029 162.982 162.048 165.66 160.17 168.413C156.892 173.459 154.066 178.792 151.488 184.226C148.442 190.682 145.919 197.366 143.493 204.075C138.481 217.507 134.432 231.314 131.763 245.407C130.406 252.261 130.133 259.265 130.166 266.236C130.197 266.955 130.146 267.687 130.149 268.409C129.675 268.653 129.196 268.887 128.706 269.102C124.553 270.966 117.223 273.265 111.981 275.245C101.211 279.504 90.539 284.01 80.018 288.855C68.743 293.97 58.87 300.476 49.436 307.718C40.497 314.132 31.042 322.051 24.896 330.349C24.344 331.156 23.545 331.865 23.269 332.811C23.196 333.262 23.54 333.718 23.972 333.842C24.145 333.886 24.323 333.871 24.491 333.82C24.77 334.05 25.169 334.13 25.525 333.912C29.308 331.813 33.744 330.761 38.465 329.758C42.915 328.828 47.338 327.776 51.796 326.885C69.438 323.446 85.894 321.225 103.565 319.63C114.741 318.551 125.926 317.58 137.103 316.513C139.424 316.333 141.748 316.145 144.07 315.927C152.206 323.773 160.483 331.532 169.665 338.157C177.67 343.891 186.467 348.452 195.525 352.279C203.164 355.475 211.067 357.975 219.029 360.228C220.202 360.571 221.379 360.9 222.557 361.226C225.632 366.365 229.697 370.876 234.266 374.731C237.716 377.619 241.048 380.148 245.601 382.119C250.927 384.506 247.672 378.119 246.725 375.891C245.715 373.571 245.785 373.915 245.466 372.94C245.429 372.797 245.403 372.65 245.365 372.507C245.357 372.452 245.346 372.394 245.334 372.352C245.309 372.231 245.281 372.124 245.259 372.052C245.254 372.031 245.244 372.012 245.238 371.991C245.808 372.373 246.385 372.745 246.975 373.097C249.68 374.732 252.656 375.834 255.581 377C258.61 378.276 261.73 379.294 264.867 380.264C269.085 381.711 274.788 383.155 278.287 383.452C278.739 383.467 279.779 383.753 280.768 383.668C282.442 383.293 281.568 381.419 280.847 380.517C279.046 378.356 276.673 376.753 274.726 374.728C272.86 372.897 271.104 370.958 269.316 369.051C271.321 369.172 273.327 369.278 275.334 369.38C276.884 371.665 278.668 373.8 280.791 375.574C281.692 376.261 282.555 377.095 283.626 377.498C284.539 377.729 285.182 377.024 285.588 376.298C286.322 374.918 286.549 373.978 287.021 373.018C287.282 372.381 287.84 371.562 288.087 371.229C288.098 371.217 288.196 371.095 288.263 370.999C288.287 370.966 288.312 370.934 288.337 370.901C288.371 370.879 288.698 370.519 288.732 370.381C288.769 370.308 288.788 370.231 288.797 370.153C290.635 370.287 292.472 370.437 294.307 370.619C302.194 371.454 309.772 371.937 316.907 373.285C319.205 373.747 321.515 374.146 323.793 374.703C324.414 374.85 325.034 374.998 325.655 375.147C328.935 376.868 330.617 378.491 333.531 381.594C336.719 384.988 339.55 388.394 341.888 391.578C346.567 398.046 350.976 404.727 355.005 411.619C359.819 420.035 364.192 428.737 369.772 436.689C374.413 443.671 380.312 449.675 386.844 454.9C390.858 458.103 394.782 461.482 399.256 464.038C399.798 464.334 400.321 464.729 400.943 464.815C401.749 464.912 402.377 464.091 402.224 463.319C401.705 461.171 400.045 458.748 399.649 457.413C396.199 447.83 395.822 438.935 395.159 428.783C394.747 421.639 393.953 414.526 392.831 407.46C391.5 398.999 390.311 390.502 388.502 382.127C387.905 379.689 387.223 377.272 386.391 374.903C385.943 373.482 385.25 372.135 384.919 370.68C385.553 365.886 389.495 355.861 392.021 349.503C393.868 344.644 395.481 339.7 396.977 334.723C398.609 329.353 400.101 323.93 401.157 318.415C401.408 317.095 401.698 315.784 401.938 314.462C401.989 314.088 402.115 313.706 401.935 313.358C405.547 315.083 409.002 317.134 412.69 318.692C417.457 320.435 421.11 318.719 422.752 313.782C423.215 312.556 423.565 311.27 423.576 309.951C423.556 308.242 423.106 306.568 422.594 304.948C420.586 299.151 417.122 294.018 413.604 289.044C411.731 286.564 409.78 284.132 407.746 281.771C407.762 281.601 407.772 281.441 407.763 281.471C407.774 281.358 407.78 281.244 407.791 281.131C407.81 280.908 407.774 281.214 407.761 281.308C407.87 280.464 407.96 279.616 408.003 278.765C408.38 273.305 408.567 267.817 408.105 262.356C407.949 261.103 407.806 259.771 407.074 258.706C406.4 257.791 404.995 257.615 404.204 258.481C403.521 259.214 403.2 260.192 402.799 261.092C402.528 261.734 401.83 263.405 401.108 264.716C399.957 266.987 398.278 269.307 397.085 270.957C396.745 270.66 396.412 270.355 396.067 270.063C391.681 266.463 386.994 263.243 382.396 259.921C378.544 257.163 374.816 254.228 370.817 251.679C368.394 250.072 365.698 248.952 363.094 247.677C362.504 247.427 361.965 247.074 361.404 246.767C362.608 245.719 363.802 244.659 364.976 243.578C370.793 238.243 376.087 232.379 381.59 226.73C389.767 218.362 397.686 209.521 403.405 199.25C406.258 193.489 408.397 187.384 410.426 181.292C413.057 172.706 414.999 163.917 416.791 155.124C416.895 154.421 416.984 153.716 417.069 153.011C417.261 153.025 417.455 152.992 417.625 152.887C418.325 152.123 423.087 146.167 425.783 142.243C428.829 137.645 431.59 132.86 434.211 128.009C437.466 121.962 440.34 115.394 440.691 108.452C440.687 106.114 440.267 103.8 440.204 101.464C440.107 98.34 440.217 95.211 440.296 92.087C440.447 85.606 441.442 79.193 442.123 72.754ZM164.374 126.938C164.261 123.053 163.567 119.327 161.97 115.766C161.264 113.921 160.23 112.235 159.315 110.493C158.112 108.073 157.695 106.878 156.676 104.344C155.511 101.24 153.883 97.591 153.931 95.05C154.025 94.428 154.075 94.204 154.333 94.022C155.274 93.836 156.31 94.025 157.756 94.266C164.842 95.576 170.293 97.812 176.359 101.434C181.287 104.396 184.685 107.65 188.633 112.13C192.089 115.838 195.356 119.774 199.234 123.053C199.999 123.681 200.862 124.165 201.737 124.62C194.475 130.387 187.615 136.655 181.133 143.293C176.683 147.825 172.405 152.541 168.386 157.464C168.726 155.574 168.924 154.338 169.025 152.249C169.13 148.064 168.332 143.894 167.176 139.887C165.702 135.323 164.563 131.055 164.374 126.938ZM48.27 310.801C52.482 307.724 56.636 304.567 60.984 301.681C72.476 293.861 86.244 288.192 98.168 283.111C103.442 280.999 108.669 278.764 113.99 276.772C119.267 274.858 124.653 273.241 129.792 270.964C132.482 269.818 134.84 268.055 137.267 266.453C140.308 264.369 143.076 262.459 146.253 259.732C151.217 255.733 155.655 251.158 159.773 246.302C160.803 245.066 161.859 243.837 162.872 242.585C163.717 247.813 167.458 254.204 171.548 258.375C174.585 261.393 178.22 263.702 181.778 266.048C182.239 266.351 182.54 266.553 182.766 266.741C182.511 266.874 182.25 266.997 181.994 267.127C180.395 267.938 178.96 268.421 176.885 269.091C168.353 271.725 159.485 273.152 151.072 276.204C143.585 278.658 136.249 281.556 128.718 283.88C122.364 285.821 115.872 287.264 109.499 289.143C101.355 291.397 93.501 294.549 85.637 297.614C77.743 300.866 70.084 304.669 62.426 308.434C53.445 313.036 44.233 317.255 35.645 322.575C33.836 323.713 31.913 325.162 30.086 326.668C35.492 320.726 42.141 315.269 48.27 310.801ZM246.629 380.483C245.724 380.054 244.215 379.291 243.108 378.635C237.775 375.395 233.774 372.061 229.321 367.454C227.556 365.369 226.321 363.856 224.956 361.871C228.818 362.894 232.706 363.814 236.614 364.641C236.66 364.72 236.712 364.797 236.785 364.865C239.169 367.279 241.724 369.546 244.506 371.492C244.273 371.511 244.048 371.631 243.926 371.845C243.743 372.281 243.846 372.128 243.829 372.813C243.904 373.814 243.883 373.933 244.336 375.051C245.139 377.043 246.187 378.942 246.629 380.483ZM272.072 374.948C273.953 376.97 277.662 379.941 279.198 381.606C278.03 381.383 276.861 381.158 275.698 380.908C266.576 378.85 257.044 375.604 249.394 371.908C245.978 370.034 243.925 368.426 241.195 366.068C240.953 365.86 240.721 365.64 240.486 365.425C244.719 366.245 248.974 366.954 253.248 367.532C257.669 368.167 262.11 368.571 266.559 368.876C266.84 369.195 267.18 369.512 267.436 369.824C268.971 371.542 270.473 373.29 272.072 374.948ZM285.499 371.924C284.853 373.063 284.473 374.348 283.777 375.456C282.564 374.709 282.129 374.312 281.049 373.378C279.518 371.988 278.508 370.837 277.498 369.491C280.61 369.649 283.721 369.812 286.829 370.018C286.31 370.593 285.869 371.245 285.499 371.924ZM403.359 264.952C404.179 263.516 404.688 261.917 405.504 260.483C405.831 261.324 406.061 263.933 406.075 265.928C406.29 270.372 406.033 274.812 405.747 279.247C405.745 279.331 405.739 279.416 405.735 279.501C403.435 276.958 401.031 274.511 398.498 272.206C400.331 269.941 401.996 267.529 403.359 264.952ZM370.416 254.065C373.901 256.359 377.208 258.903 380.583 261.352C385.317 264.772 390.435 268.315 394.318 271.497C400.122 276.328 405.161 282.009 409.917 287.854C413.923 293.178 419.515 300.935 421.086 307.859C421.861 310.31 420.944 312.897 419.741 315.275C418.293 317.994 415.006 317.956 410.925 315.705C407.54 313.998 404.208 312.187 400.757 310.612C396.325 308.484 393.043 307.067 388.357 305.436C384.16 304.061 379.904 302.869 375.697 301.522C366.135 298.621 356.48 295.879 346.492 294.967C337.185 293.787 327.77 294.464 318.421 293.961C307.723 293.651 297.013 293.604 286.318 294.034C280.71 294.248 276.291 293.755 271.128 295.789C270.841 295.894 270.604 295.988 270.383 296.078C274 293.405 277.883 291.07 282.14 288.678C291.038 283.547 300.099 279.566 308.987 275.923C315.542 273.243 322.338 271.193 328.862 268.436C334.905 265.862 340.632 262.578 346.016 258.823C350.756 255.47 355.368 251.916 359.796 248.153C362.459 249.597 367.251 251.777 370.416 254.065ZM277.673 300.908C276.878 300.035 275.843 299.294 274.632 299.211C272.801 299.229 270.973 299.408 269.139 299.363C268.312 299.373 267.675 299.354 267.101 299.315C267.141 299.298 267.185 299.28 267.239 299.255C268.148 298.904 269.071 298.594 269.981 298.246C271.356 297.733 272.732 297.188 274.175 296.894C275.908 296.518 278.845 296.308 281.958 296.31C288.516 296.289 295.067 295.839 301.627 295.96C309.903 295.918 318.17 296.235 326.443 296.39C331.263 296.52 336.089 296.392 340.905 296.678C344.826 296.888 349.104 297.521 352.136 297.919C357.996 298.806 363.721 300.334 369.409 301.987C369.364 302.032 369.321 302.075 369.281 302.123C369.247 302.155 369.217 302.184 369.185 302.214C368.714 302.508 368.271 303.049 367.78 303.474C366.435 304.826 365.049 306.138 363.779 307.562C360.074 311.65 357.444 316.523 354.788 321.319C351.706 326.452 348.61 331.594 345.142 336.479C341.807 340.95 337.298 347.05 332.783 348.111C332.154 348.227 331.798 348.334 331.519 348.371C331.161 348.202 330.702 348.125 330.296 348.024C329.2 347.741 327.832 347.182 327.57 347.051C323.829 345.125 320.147 343.073 316.449 341.065C311.484 338.036 306.576 334.901 301.759 331.643C298.707 329.523 297.013 328.046 294.119 325.888C289.962 322.94 286.2 320.157 282.743 317.358C280.735 315.701 278.734 314.033 276.675 312.44C277.124 312.543 277.643 312.389 277.882 311.949C278.119 311.535 278.304 309.466 278.562 307.512C278.783 305.323 279.229 302.714 277.673 300.908ZM275.869 311.133C275.84 311.367 275.828 311.606 275.943 311.816C275.957 311.855 275.982 311.885 276 311.92C275.35 311.427 274.697 310.938 274.031 310.465C271.824 308.827 269.458 307.419 267.237 305.8C265.756 304.77 264.753 303.747 263.055 302.438C263.146 302.339 263.239 302.238 263.337 302.133C263.739 301.728 264.144 301.334 264.552 300.946C267.519 301.551 272.599 301.557 274.392 301.393C275.348 301.55 275.729 302.097 276.131 302.51C276.757 303.235 276.594 305.689 276.28 307.963C276.14 309.237 276.057 309.504 275.867 311.125C275.868 311.132 275.869 311.133 275.869 311.133ZM435.79 120.043C432.73 127.036 428.729 133.597 424.721 140.081C421.873 144.451 418.993 147.852 416.641 151.031C416.069 150.792 415.311 151.193 415.33 151.883C415.066 154.925 413.989 158.801 413.116 162.447C411.905 167.272 410.784 172.121 409.418 176.905C408.15 181.476 406.554 185.947 404.824 190.361C403.158 194.823 401.561 198.566 398.646 202.84C392.743 211.979 385.417 219.635 377.505 227.786C370.5 235.232 363.489 242.735 355.434 249.072C348.943 254.355 341.997 259.601 333.976 263.699C327.759 267.033 321.824 268.906 314.899 271.42C304.436 275.25 294.13 279.638 284.315 284.921C277.392 288.696 270.537 292.697 264.587 297.918C261.842 300.316 259.4 303.096 257.596 306.274C257.263 306.893 256.929 307.512 256.64 308.152C256.477 308.44 256.362 308.764 256.462 309.094C256.62 309.72 257.404 310.038 257.956 309.702C258.254 309.544 258.377 309.224 258.518 308.938C258.822 308.341 259.146 307.755 259.483 307.176C260.436 305.627 261.085 304.705 261.942 303.693C261.952 303.704 261.96 303.715 261.971 303.725C267.39 308.877 273.116 312.109 277.917 316.241C283.426 321.019 290.357 325.831 295.395 329.661C300.183 333.519 305.419 336.744 310.59 340.052C314.043 342.367 317.702 344.332 321.38 346.26C323.509 347.403 325.563 348.714 327.846 349.54C328.721 349.853 329.611 350.149 330.531 350.293C330.691 350.318 330.851 350.343 331.011 350.358C330.917 350.345 330.823 350.333 330.728 350.32C330.892 350.357 331.055 350.394 331.219 350.351C331.34 350.344 331.454 350.304 331.561 350.249C333.27 350.175 335.004 349.699 335.881 349.207C339.564 347.184 342.241 343.791 344.845 340.577C349.114 335.101 352.661 329.112 356.269 323.193C357.897 320.471 359.281 317.605 361.016 314.947C363.065 311.804 364.465 309.952 367.096 307.283C368.102 306.326 369.043 305.303 370.03 304.327C370.147 304.202 370.287 304.094 370.42 303.979C370.906 303.642 371.391 303.302 371.877 302.966C371.952 302.901 372.037 302.841 372.124 302.783C373.77 303.269 375.414 303.759 377.058 304.24C380.658 305.423 384.333 306.367 387.93 307.558C392.48 309.102 395.629 310.438 399.928 312.448C400.237 312.58 400.541 312.723 400.847 312.861C400.677 312.898 400.516 312.976 400.388 313.109C400.03 313.458 400.116 313.994 399.991 314.442C398.559 321.511 396.54 328.449 394.459 335.351C392.149 343.368 389.074 351.123 386.211 358.95C385.277 361.621 384.451 364.331 383.664 367.049C383.346 368.597 382.609 370.219 383.044 371.805C384.347 375.806 385.765 379.781 386.613 383.913C388.286 392.084 389.477 400.346 390.764 408.584C391.868 415.65 392.503 421.679 392.954 429.122C393.575 438.632 394.128 448.352 397.416 457.383C397.912 458.78 399.063 460.951 399.713 462.149C399.497 462.016 399.281 461.884 399.068 461.745C395.449 459.43 393.091 457.374 389.687 454.613C385.77 451.454 381.986 448.124 378.532 444.46C374.173 439.754 370.79 434.6 367.191 428.729C362.633 421.094 358.654 413.128 353.979 405.563C347.755 395.886 341.457 386.087 333.098 378.086C331.557 376.647 327.028 373.343 326.226 373.152C324.004 372.579 321.773 372.05 319.521 371.608C311.257 369.797 302.79 369.289 294.395 368.403C279.863 366.993 263.897 367.16 250.463 364.89C241.256 363.536 232.158 361.542 223.187 359.081C223.078 358.943 222.937 358.832 222.766 358.784C222.58 358.727 222.399 358.751 222.239 358.821C220.525 358.344 218.814 357.856 217.109 357.345C202.257 353.102 189.083 347.935 175.976 339.74C166.906 334.012 159.617 327.788 151.581 320.451C149.827 318.896 148.11 317.276 146.371 315.704C153.11 315.004 159.809 313.977 166.317 312.032C169.625 311.052 172.77 309.577 175.675 307.718C176.31 307.325 176.923 306.9 177.544 306.487C177.905 306.28 178.132 305.843 178.049 305.434C178.007 304.917 177.521 304.52 177.011 304.517C176.5 304.518 176.122 304.928 175.699 305.162C174.74 305.783 173.773 306.39 172.788 306.97C170.245 308.428 168.736 309.055 165.871 309.957C153.17 313.755 140.96 313.815 127.626 315.235C105.187 317.26 82.71 319.169 60.524 323.212C54.428 324.234 48.385 325.541 42.359 326.915C38.752 327.749 35.101 328.409 31.562 329.514C30.456 329.843 29.355 330.193 28.278 330.604C30.438 328.67 32.493 326.891 34.923 325.307C43.262 319.768 52.516 315.782 61.398 311.21C68.996 307.415 76.619 303.655 84.391 300.228C89.136 298.269 95.672 295.714 101.314 293.725C110.951 290.306 121.009 288.316 130.754 285.264C141.357 281.851 151.682 277.551 162.495 274.81C168.84 273.245 176.351 271.636 181.609 269.29C183.484 268.453 186.798 267.454 183.733 265.18C180.186 262.717 176.735 260.736 173.938 258.153C170.652 255.148 167.82 251.071 166.135 247.089C169.148 248.968 172.124 248.346 175.015 246.226C177.329 244.678 179.5 242.708 180.664 240.13C181.72 237.679 182.012 234.978 182.779 232.432C184.07 227.898 185.391 223.153 187.262 219.573C187.787 218.704 187.695 218.75 188.231 218.269C188.236 218.266 188.239 218.264 188.243 218.261C189.124 217.975 190.803 218.126 192.261 218.007C197.438 217.69 202.695 216.679 207.319 214.25C210.702 212.478 213.636 210.001 216.816 207.91C219.125 206.339 221.886 205.832 224.999 204.915C227.933 203.96 230.822 202.756 233.495 201.207C238.822 198.19 243.142 193.764 247.256 189.297C251.764 184.41 256.163 179.423 260.712 174.574C270.96 164.192 282.052 153.675 293.156 145.487C297.257 142.373 301.756 139.858 306.213 137.302C313.019 133.198 319.473 130.458 326.474 127.73C330.297 126.237 334.078 124.611 337.588 122.467C342.778 119.419 347.568 115.753 352.629 112.504C361.277 107.045 370.396 102.377 379.38 97.504C385.54 94.099 391.603 91.116 397.673 88.967C403.881 86.593 409.428 85.33 415.729 85.217C421.557 85.18 426.142 85.386 430.661 88.221C433.762 90.004 436.571 91.717 437.352 94.065C437.405 94.135 437.459 94.205 437.514 94.274L437.372 94.09C437.428 94.164 437.482 94.238 437.542 94.309C437.623 94.401 437.723 94.472 437.821 94.546C437.955 94.659 438.119 94.724 438.292 94.743C438.244 97.129 438.238 99.515 438.31 101.899C438.392 104.144 438.786 106.372 438.763 108.622C438.793 111.637 436.877 117.559 435.79 120.043ZM438.468 89.202C438.428 90.115 438.394 91.029 438.363 91.944C437.365 90.47 435.309 88.737 433.717 87.772C431.48 86.386 429.198 84.964 426.653 84.223C423.554 83.34 420.296 83.223 417.091 83.171C410.23 83.098 403.434 84.494 397.058 86.995C390.407 89.367 384.077 92.531 377.907 95.944C369.429 100.526 360.856 104.965 352.651 110.029C347.386 113.318 342.469 117.137 337.142 120.33C333.145 122.797 329.814 124.22 325.824 125.786C318.555 128.597 311.389 131.719 304.723 135.784C300.347 138.27 295.959 140.765 291.947 143.819C283.69 149.907 275.997 156.736 268.64 163.877C264.852 167.636 260.888 171.217 257.338 175.21C253.312 179.583 249.372 184.035 245.334 188.398C241.238 192.813 237.446 196.611 232.589 199.41C229.599 201.131 227.546 201.991 224.385 203.038C221.596 203.886 218.657 204.46 216.167 206.046C212.945 208.142 210.019 210.683 206.645 212.545C203.303 214.448 198.933 215.554 195.394 215.968C193.778 216.181 192.147 216.23 190.519 216.245C189.073 216.251 187.375 216.08 186.44 217.42C185.067 219.192 184.332 221.359 183.535 223.43C182.411 226.489 181.442 229.603 180.59 232.749C179.999 234.789 179.68 236.908 178.99 238.917C178.968 238.973 178.946 239.029 178.925 239.085C178.81 239.34 178.689 239.592 178.561 239.841C178.453 240.03 178.359 240.228 178.239 240.41C178.087 240.665 177.912 240.905 177.736 241.144C177.648 241.251 177.533 241.394 177.49 241.456C174.951 244.386 171.572 246.576 169.183 246.418C168.904 246.406 168.639 246.34 168.387 246.228C168.358 246.215 168.329 246.202 168.303 246.19C167.532 245.888 166.89 245.27 166.102 245.04C165.863 244.986 165.62 245.07 165.432 245.224C165.124 244.299 164.88 243.388 164.722 242.509C164.593 241.831 164.765 240.927 164.111 240.504C164.056 240.471 163.999 240.457 163.942 240.437C163.885 240.357 163.817 240.286 163.731 240.238C163.463 240.076 163.087 240.125 162.869 240.349C155.723 249.023 147.335 257.081 138.616 262.957C136.379 264.44 134.201 266.056 131.891 267.435C131.906 260.911 131.963 254.42 132.987 248.53C135.339 235.147 139.067 222.019 143.642 209.232C147.935 197.218 151.948 186.362 158.297 175.236C162.936 167.029 168.142 160.607 174.117 153.705C186.738 139.509 200.391 126.948 215.882 116.792C221.9 112.793 228.199 109.249 234.608 105.919C242.767 101.508 251.086 97.406 259.472 93.446C279.728 83.924 298.995 74.838 319.706 67.173C328.039 64.064 336.555 61.472 345.104 59.025C361.861 54.044 378.948 50.225 396.203 47.429C404.089 46.193 410.808 45.165 418.887 44.497C424.51 44.085 429.845 43.87 434.064 46.341C435.548 47.279 436.871 48.813 437.895 50.784C441.064 56.514 441.171 64.047 440.238 71.429C439.658 77.354 438.748 83.25 438.468 89.202Z" fill="black"/>
<path d="M416.289 151.503L416.32 151.463L416.289 151.503Z" fill="black"/>
<path d="M412.678 51.87C411.984 51.882 411.289 51.889 410.597 51.947C408.238 52.172 405.874 52.447 403.558 52.956C400.03 53.741 396.679 55.092 393.392 56.569C386.349 59.578 379.733 63.494 373.482 67.907C363.561 74.826 354.634 83.126 347.268 92.733C344.461 96.363 341.554 100.027 339.512 104.142C339.379 104.892 340.488 105.303 340.867 104.61C344.062 99.097 346.864 95.758 350.749 90.994C355.933 84.704 361.762 78.975 368.194 73.964C377.601 66.457 389.699 59.037 401.268 55.276C404.774 54.242 407.544 53.824 410.892 53.514C411.522 53.458 412.154 53.419 412.786 53.383C413.097 53.393 413.418 53.217 413.522 52.916C413.772 52.383 413.257 51.765 412.678 51.87Z" fill="black"/>
<path d="M313.072 90.59C312.595 89.364 311.677 88.371 310.674 87.545C309.634 86.64 308.531 85.771 307.266 85.203C306.696 84.987 306.09 84.651 305.469 84.713C304.7 84.761 304.253 85.731 304.654 86.371C304.831 86.693 305.133 86.823 305.455 86.919C304.971 87.072 304.505 87.295 304.037 87.483C301.936 88.46 300.217 90.479 299.665 92.74C299.181 94.92 299.452 97.193 300.188 99.286C300.738 100.949 301.552 102.558 302.879 103.737C305.188 105.999 308.979 105.118 310.955 102.85C312.028 101.731 312.584 100.258 313.118 98.83C314.071 96.208 314.038 93.204 313.072 90.59ZM308.975 89.012C308.94 89.35 309.076 89.666 309.288 89.932C309.291 89.938 309.296 89.946 309.3 89.952C309.316 90.001 309.334 90.049 309.346 90.099C309.351 90.172 309.357 90.244 309.353 90.317C309.328 90.433 309.294 90.547 309.253 90.658C309.197 90.768 309.09 90.973 309.01 91.07C308.43 91.785 308.038 92.135 307.336 91.912C307.234 91.856 307.138 91.792 307.043 91.726C306.977 91.666 306.888 91.583 306.821 91.507C306.756 91.413 306.699 91.314 306.649 91.211C306.638 91.178 306.628 91.148 306.612 91.095C306.605 91.064 306.599 91.039 306.594 91.015C306.584 90.176 306.737 90.132 308.339 89.103C308.388 89.073 308.427 89.04 308.468 89.007C308.619 89.005 308.767 88.993 308.913 88.959C308.935 88.976 308.953 88.993 308.975 89.012Z" fill="black"/>
<path d="M277.085 265.362C276.741 264.783 276.112 264.907 275.561 265.044C274.881 265.167 274.21 265.333 273.532 265.467C268.983 266.238 268.236 266.302 263.558 266.774C259.969 267.112 256.356 267.3 252.752 267.142C248.434 266.952 244.151 266.323 239.868 265.776C232.038 264.431 221.145 262.942 212.215 262.086C206.527 261.394 201.896 261.46 196.566 259.428C192.594 257.768 187.682 253.98 186.572 249.489C185.84 247.159 186.048 245.163 186.509 242.865C187.005 240.458 187.712 238.069 187.935 235.621C187.899 234.958 186.835 234.876 186.691 235.536C186.159 240.081 183.916 244.543 184.904 249.173C185.572 253.277 188.544 256.478 191.821 258.815C195.727 261.674 200.58 262.706 205.309 263.216C217.23 264.443 227.806 265.68 239.524 267.734C244.139 268.347 248.755 269.063 253.414 269.224C258.525 269.401 263.638 268.923 268.702 268.265C270.953 267.944 273.207 267.6 275.41 267.029C276.251 266.78 277.646 266.598 277.085 265.362Z" fill="black"/>
<path d="M265.622 271.606C265.236 270.511 263.918 271.24 263.094 271.268C262.028 271.461 258.819 271.99 258.649 272.001C249.849 273.297 240.964 272.101 232.18 271.254C223.256 270.247 212.511 269.469 204.458 268.659C200.795 268.268 196.198 266.956 193.455 265.749C192.442 265.266 191.442 264.743 190.518 264.104C189.916 263.761 189.406 263.194 188.756 262.973C188.072 262.839 187.692 263.875 188.328 264.212C197.665 271.504 210.095 270.624 221.244 272C227.057 272.551 232.861 273.178 238.674 273.729C245.143 274.403 251.704 274.764 258.169 273.866C260.022 273.631 261.856 273.276 263.688 272.916C264.474 272.712 265.861 272.765 265.622 271.606Z" fill="black"/>
<path d="M385.575 168.278C385.574 168.285 385.572 168.294 385.571 168.301C385.569 168.314 385.569 168.325 385.567 168.338C385.569 168.313 385.572 168.296 385.575 168.278Z" fill="black"/>
<path d="M385.575 168.278C385.594 168.143 385.593 168.172 385.575 168.278Z" fill="black"/>
<path d="M405.65 161.1C405.579 160.836 405.375 160.671 405.129 160.588C403.576 160.006 402.946 159.781 401.479 159.24C400.075 158.701 397.804 157.351 395.79 156.664C392.398 155.425 388.777 155.037 385.213 154.603C379.826 154.052 374.365 153.959 368.971 154.453C362.862 155.073 356.765 156.032 350.611 156.022C347.644 155.984 344.702 155.521 341.738 155.41C337.06 155.355 332.327 155.414 327.716 156.271C322.357 157.599 318.509 161.654 313.633 161.088C310.433 160.784 307.204 160.331 304.004 160.897C299.138 161.637 294.887 164.463 291.077 167.434C289.82 168.445 288.562 169.457 287.372 170.547C287.026 170.89 286.503 171.156 286.506 171.699C286.506 171.708 286.51 171.715 286.51 171.724C286.374 172.159 286.51 172.676 286.962 172.897C287.066 173.119 287.271 173.288 287.569 173.277C290.917 173.159 293.332 173.583 296.329 173.982C300.49 174.522 304.661 175.053 308.86 175.164C316.721 175.35 324.577 175.171 332.42 174.626C339.496 174.328 346.567 173.902 353.613 173.169C359.718 172.583 365.825 171.969 371.951 171.652C380.725 171.336 389.538 170.963 398.2 169.442C399.245 169.157 400.447 169.108 401.328 168.439C401.37 168.414 401.41 168.388 401.447 168.358C401.452 168.354 401.456 168.352 401.452 168.353C401.624 168.209 401.743 168.008 401.79 167.79C402.437 167.075 402.853 166.146 403.399 165.354C404.119 164.167 404.813 162.965 405.518 161.769C405.636 161.569 405.721 161.333 405.65 161.1ZM303.064 173.038C301.314 172.899 299.561 172.684 297.806 172.474C297.949 172.423 298.094 172.378 298.234 172.32C299.434 171.341 300.919 169.707 301.88 168.975C302.285 169.676 302.432 170.628 302.622 171.778C302.675 172.314 303.102 172.914 303.702 172.734C304.199 172.581 304.479 172.103 304.821 171.745C305.576 170.888 306.65 169.439 307.247 168.603C307.7 169.343 308.452 170.688 308.859 171.391C309.24 171.926 309.57 172.808 310.331 172.822C311.155 172.794 311.352 171.819 311.708 171.236C312.587 169.696 313.297 167.233 314.122 166.54C314.147 166.557 314.171 166.574 314.19 166.589C314.478 167.018 315.461 168.05 316.056 169.034C316.662 169.727 317.64 172.175 318.784 171.142C319.329 170.265 319.258 169.799 319.62 169.181C320.126 168.033 320.645 166.891 321.16 165.748C321.952 166.713 323.068 168.272 323.662 169.767C323.482 169.365 323.947 170.544 324.044 170.761C324.333 171.263 325.113 171.255 325.368 170.726C325.989 169.249 326.219 167.659 326.48 166.087C326.885 166.632 327.331 167.278 327.761 167.982C328.159 168.63 328.521 169.299 328.886 169.966C329.148 170.956 329.431 171.94 329.717 172.922C326.158 173.114 322.597 173.284 319.035 173.376C313.711 173.378 308.373 173.552 303.064 173.038ZM331.216 172.84C331.495 172.373 331.495 171.761 331.648 171.246C331.788 170.64 331.908 170.029 332.031 169.419C332.071 169.326 332.111 169.24 332.148 169.168C332.643 167.969 333.141 165.957 333.335 164.514C333.827 165.176 334.293 165.91 334.863 166.795C335.452 167.637 335.968 168.561 336.578 169.402C336.586 169.42 336.592 169.439 336.6 169.457C337.134 170.65 337.237 170.867 337.675 171.997C337.689 172.028 337.701 172.06 337.714 172.091C337.727 172.204 337.742 172.318 337.766 172.429C337.77 172.444 337.778 172.456 337.782 172.47C335.594 172.593 333.405 172.718 331.216 172.84ZM343.673 172.151C342.275 172.22 340.877 172.295 339.48 172.373C339.506 172.226 339.5 172.07 339.468 171.925C339.461 171.908 339.452 171.892 339.446 171.875C339.446 171.875 339.452 171.882 339.452 171.879C339.439 171.843 339.422 171.806 339.406 171.769C339.467 171.334 339.517 170.897 339.566 170.46C339.597 170.194 339.662 169.79 339.744 169.312C339.75 169.292 339.757 169.272 339.762 169.252C340.779 166.322 341.465 162.279 341.78 159.374C343.479 161.68 344.053 163.643 344.869 166.454C345.152 167.333 345.298 168.286 345.587 169.174C345.808 170.253 346.02 171.223 346.182 171.954C345.345 172.023 344.509 172.09 343.673 172.151ZM350.732 171.558C351.137 170.195 352.119 167.991 352.858 165.979C353.102 166.791 353.413 167.473 353.639 168.1C354.146 169.294 354.332 170.057 355.047 171.152C353.608 171.289 352.17 171.426 350.732 171.558ZM359.418 170.736C359.567 170.395 359.661 170.028 359.783 169.675C359.848 169.413 359.905 169.161 359.956 168.917C360.722 166.947 361.219 164.854 361.751 162.816C361.926 162.129 362.059 161.172 362.16 160.401C363.363 162.136 364.121 164.342 364.781 166.781C365.088 167.801 365.37 168.834 365.798 169.81C365.838 169.929 365.89 170.044 365.947 170.154C363.769 170.331 361.593 170.531 359.418 170.736ZM370.598 169.833C372.065 167.555 372.782 164.851 373.496 162.26C373.567 161.928 373.737 161.218 373.874 160.644C374.232 161.271 374.467 161.864 374.671 162.523C374.857 163.681 375.026 164.672 375.206 165.638C375.253 165.892 375.423 168.418 375.534 169.256C375.531 169.262 375.528 169.289 375.525 169.35C375.523 169.427 375.538 169.499 375.555 169.569C373.887 169.653 372.226 169.738 370.598 169.833ZM383.576 168.387C383.562 168.667 383.555 168.935 383.612 169.153C381.568 169.27 379.496 169.373 377.43 169.475C377.535 169.151 377.565 168.793 377.63 168.463C377.785 167.439 378.007 166.427 378.188 165.407C378.27 164.988 378.349 164.568 378.428 164.149C379.037 162.304 379.579 160.44 379.939 158.53C380.192 158.737 380.47 159.018 380.952 159.521C380.986 159.569 381.072 159.672 381.13 159.739C382.255 161.32 382.543 162.456 383.077 164.404C383.239 165.078 383.365 165.761 383.462 166.448C383.494 166.692 383.534 166.981 383.621 167.238C383.598 167.545 383.571 167.853 383.54 168.159C383.542 168.242 383.557 168.317 383.576 168.387ZM385.379 169.047C385.384 169.03 385.394 169.017 385.398 168.999C385.41 168.948 385.421 168.897 385.431 168.846C385.496 168.673 385.545 168.44 385.57 168.301C385.628 167.936 385.665 167.588 385.689 167.251C385.758 167.011 385.834 166.74 385.937 166.401C386.051 165.901 386.152 165.431 386.246 164.975C386.911 163.058 387.06 160.621 387.228 159.077C387.67 159.551 387.698 159.736 388.232 160.506C388.821 161.452 389.266 162.483 389.919 163.39C390.598 164.356 392.272 166.231 392.535 166.571C393.005 167.103 393.246 167.798 393.712 168.324C393.729 168.338 393.745 168.347 393.761 168.36C391.114 168.651 388.285 168.866 385.379 169.047ZM400.438 164.165C400.4 164.893 400.328 165.619 400.292 166.346C400.268 166.534 400.263 166.756 400.282 166.98C400.228 167.028 400.179 167.081 400.136 167.141C400.128 167.149 400.128 167.15 400.122 167.157C400.104 167.167 400.088 167.18 400.071 167.189C399.995 167.23 399.918 167.268 399.838 167.302C400.128 167.17 399.973 167.244 399.797 167.322C399.794 167.323 399.783 167.327 399.755 167.338C398.546 167.706 397.293 167.904 396.045 168.087C395.71 168.132 395.365 168.172 395.023 168.214C395.37 167.882 395.662 167.394 395.883 167.065C396.699 165.865 397.464 164.633 398.2 163.383C398.675 162.617 399.11 161.826 399.559 161.045C399.93 161.642 400.378 162.531 400.442 163.406C400.443 163.549 400.453 164.035 400.438 164.165Z" fill="black"/>
</svg>
